<?xml version="1.0" encoding="UTF-8" standalone="no"?>
<svg
   width="48"
   height="48"
   fill="currentColor"
   class="bi bi-buildings-fill"
   viewBox="0 0 48 48"
   version="1.1"
   id="svg307"
   sodipodi:docname="buildings-fill.svg"
   inkscape:version="1.2.2 (732a01da63, 2022-12-09)"
   xmlns:inkscape="http://www.inkscape.org/namespaces/inkscape"
   xmlns:sodipodi="http://sodipodi.sourceforge.net/DTD/sodipodi-0.dtd"
   xmlns="http://www.w3.org/2000/svg"
   xmlns:svg="http://www.w3.org/2000/svg">
  <defs
     id="defs311" />
  <sodipodi:namedview
     id="namedview309"
     pagecolor="#ffffff"
     bordercolor="#000000"
     borderopacity="0.25"
     inkscape:showpageshadow="2"
     inkscape:pageopacity="0.0"
     inkscape:pagecheckerboard="0"
     inkscape:deskcolor="#d1d1d1"
     showgrid="false"
     inkscape:zoom="7.1705047"
     inkscape:cx="0.2091903"
     inkscape:cy="22.174171"
     inkscape:window-width="1920"
     inkscape:window-height="1009"
     inkscape:window-x="3512"
     inkscape:window-y="116"
     inkscape:window-maximized="1"
     inkscape:current-layer="svg307" />
  <path
     d="M 45.000031,1.4999675 A 1.500001,1.500001 0 0 0 42.82803,0.15896655 L 18.828013,12.158975 a 1.500001,1.500001 0 0 0 -0.828,1.341001 v 9.420006 L 1.0260007,28.577986 A 1.500001,1.500001 0 0 0 0,29.999987 V 46.499999 A 1.500001,1.500001 0 0 0 1.500001,48 H 28.50002 a 1.500001,1.500001 0 0 0 1.500001,-1.500001 v -4.500003 h 3.000002 v 4.500003 A 1.500001,1.500001 0 0 0 34.500024,48 h 9.000006 a 1.500001,1.500001 0 0 0 1.500001,-1.500001 z M 6.0000042,32.99999 h 3.0000021 v 3.000002 H 6.0000042 Z m 6.0000038,0 h 3.000002 v 3.000002 h -3.000002 z m -3.0000017,6.000004 v 3.000002 H 6.0000042 v -3.000002 z m 3.0000017,0 h 3.000002 v 3.000002 H 12.000008 Z M 39.000027,8.9999727 V 11.999975 H 36.000025 V 8.9999727 Z m -15.00001,6.0000043 h 3.000002 v 3.000002 h -3.000002 z m 3.000002,6.000004 v 3.000002 h -3.000002 v -3.000002 z m -3.000002,6.000004 h 3.000002 v 3.000002 h -3.000002 z m 6.000004,0 h 3.000002 v 3.000002 h -3.000002 z m -3.000002,6.000005 v 3.000002 H 24.000017 V 32.99999 Z m 3.000002,0 h 3.000002 v 3.000002 h -3.000002 z m 9.000006,-6.000005 v 3.000002 h -3.000002 v -3.000002 z m -3.000002,6.000005 h 3.000002 v 3.000002 H 36.000025 Z M 30.000021,20.999981 h 3.000002 v 3.000002 h -3.000002 z m 9.000006,0 v 3.000002 h -3.000002 v -3.000002 z m -6.000004,-6.000004 v 3.000002 h -3.000002 v -3.000002 z m 3.000002,0 h 3.000002 v 3.000002 h -3.000002 z"
     id="path305"
     style="stroke-width:3" />
</svg>
