<?xml version="1.0" encoding="UTF-8" standalone="no"?>
<svg
   width="48"
   height="48"
   fill="currentColor"
   class="bi bi-cloud-sun"
   viewBox="0 0 48 48"
   version="1.1"
   id="svg6"
   sodipodi:docname="cloud-sun.svg"
   inkscape:version="1.2.2 (732a01da63, 2022-12-09)"
   xmlns:inkscape="http://www.inkscape.org/namespaces/inkscape"
   xmlns:sodipodi="http://sodipodi.sourceforge.net/DTD/sodipodi-0.dtd"
   xmlns="http://www.w3.org/2000/svg"
   xmlns:svg="http://www.w3.org/2000/svg">
  <defs
     id="defs10" />
  <sodipodi:namedview
     id="namedview8"
     pagecolor="#ffffff"
     bordercolor="#000000"
     borderopacity="0.25"
     inkscape:showpageshadow="2"
     inkscape:pageopacity="0.0"
     inkscape:pagecheckerboard="0"
     inkscape:deskcolor="#d1d1d1"
     showgrid="false"
     inkscape:zoom="14.341009"
     inkscape:cx="8.5419371"
     inkscape:cy="31.099624"
     inkscape:window-width="1920"
     inkscape:window-height="1009"
     inkscape:window-x="3512"
     inkscape:window-y="116"
     inkscape:window-maximized="1"
     inkscape:current-layer="svg6" />
  <path
     d="m 21.00354,21.999009 a 10.499504,10.499504 0 0 1 10.499504,10.664497 1.4999292,1.4999292 0 0 0 1.871912,1.47593 4.5087872,4.5087872 0 0 1 5.627734,4.358794 4.4997876,4.4997876 0 0 1 -4.499787,4.499788 H 9.0041063 A 5.9997168,5.9997168 0 1 1 9.3040921,31.004584 1.4999292,1.4999292 0 0 0 10.83402,29.879637 10.505504,10.505504 0 0 1 21.00354,21.999009 Z m 13.418367,8.999575 A 13.499363,13.499363 0 0 0 8.2631413,28.028724 8.9995752,8.9995752 0 0 0 9.0041063,45.997876 H 34.502903 a 7.499646,7.499646 0 0 0 0,-14.999292 z"
     id="path2"
     style="stroke-width:2.99986" />
  <path
     d="m 31.503044,2.4999292 a 1.4999292,1.4999292 0 0 0 -2.999858,0 v 2.9998584 a 1.4999292,1.4999292 0 0 0 2.999858,0 z m 11.22847,5.8917219 A 1.4999292,1.4999292 0 1 0 40.610615,6.2707512 l -2.1239,2.1208999 a 1.5018241,1.5018241 0 0 0 2.1239,2.1238999 z M 19.395616,6.2707512 a 1.4999292,1.4999292 0 0 0 -2.1209,2.1208999 l 2.1209,2.1238999 a 1.5018241,1.5018241 0 1 0 2.1239,-2.1238999 z M 24.59737,16.392274 a 5.9997168,5.9997168 0 1 1 9.887534,6.593688 c 0.596971,0.842961 1.115947,1.745918 1.547927,2.693873 A 8.9995752,8.9995752 0 1 0 21.513516,16.005292 c 1.05595,0.033 2.087901,0.164992 3.083854,0.386982 z m 13.451365,12.221423 c 1.799916,0.644969 3.374841,1.769916 4.565785,3.215848 a 1.4999292,1.4999292 0 0 0 0.116994,-2.225895 l -2.120899,-2.1209 a 1.4999292,1.4999292 0 0 0 -2.56188,1.130947 z m 5.453743,-11.114476 a 1.4999295,1.4999295 0 0 0 0,2.999859 h 2.999858 a 1.4999295,1.4999295 0 0 0 0,-2.999859 z"
     id="path4"
     style="stroke-width:2.99986" />
</svg>
